<mxfile host="app.diagrams.net" agent="Mozilla/5.0 (Macintosh; Intel Mac OS X 10_15_7) AppleWebKit/605.1.15 (KHTML, like Gecko) Version/18.0.1 Safari/605.1.15" version="24.8.4">
  <diagram name="Page-1" id="ZQOq1tR3-bHp-TOrU02O">
    <mxGraphModel dx="1969" dy="944" grid="1" gridSize="10" guides="1" tooltips="1" connect="1" arrows="1" fold="1" page="1" pageScale="1" pageWidth="1400" pageHeight="1000" math="0" shadow="0">
      <root>
        <mxCell id="0" />
        <mxCell id="1" parent="0" />
        <mxCell id="FIS8jfVRvhXGR2WtkmsS-3" value="" style="group" vertex="1" connectable="0" parent="1">
          <mxGeometry x="90" width="1220" height="690" as="geometry" />
        </mxCell>
        <mxCell id="FIS8jfVRvhXGR2WtkmsS-1" value="" style="shape=folder;fontStyle=1;spacingTop=10;tabWidth=40;tabHeight=14;tabPosition=left;html=1;whiteSpace=wrap;" vertex="1" parent="FIS8jfVRvhXGR2WtkmsS-3">
          <mxGeometry y="9.583333333333332" width="1219.9999999999998" height="680.4166666666665" as="geometry" />
        </mxCell>
        <mxCell id="xTJghPn8SgGBMsq74pdZ-3" value="Instructor" style="swimlane;fontStyle=0;childLayout=stackLayout;horizontal=1;startSize=26;fillColor=none;horizontalStack=0;resizeParent=1;resizeParentMax=0;resizeLast=0;collapsible=1;marginBottom=0;whiteSpace=wrap;html=1;" parent="FIS8jfVRvhXGR2WtkmsS-3" vertex="1">
          <mxGeometry x="532.127659574468" y="47.91666666666666" width="207.6595744680851" height="116.08333333333331" as="geometry" />
        </mxCell>
        <mxCell id="xTJghPn8SgGBMsq74pdZ-4" value="-name: String&lt;div&gt;-phoneNumber: Int&lt;/div&gt;&lt;div&gt;-StartDate: int&lt;/div&gt;&lt;div&gt;-endDate: Int&lt;/div&gt;&lt;div&gt;-specialization: String&lt;/div&gt;" style="text;strokeColor=none;fillColor=none;align=left;verticalAlign=top;spacingLeft=4;spacingRight=4;overflow=hidden;rotatable=0;points=[[0,0.5],[1,0.5]];portConstraint=eastwest;whiteSpace=wrap;html=1;" parent="xTJghPn8SgGBMsq74pdZ-3" vertex="1">
          <mxGeometry y="26" width="207.6595744680851" height="90.08333333333331" as="geometry" />
        </mxCell>
        <mxCell id="xTJghPn8SgGBMsq74pdZ-5" value="Lesson" style="swimlane;fontStyle=0;childLayout=stackLayout;horizontal=1;startSize=26;fillColor=none;horizontalStack=0;resizeParent=1;resizeParentMax=0;resizeLast=0;collapsible=1;marginBottom=0;whiteSpace=wrap;html=1;" parent="FIS8jfVRvhXGR2WtkmsS-3" vertex="1">
          <mxGeometry x="532.127659574468" y="220.41666666666666" width="207.6595744680851" height="77.75" as="geometry" />
        </mxCell>
        <mxCell id="xTJghPn8SgGBMsq74pdZ-6" value="-mode: String&lt;div&gt;-lessonType: Type&lt;/div&gt;" style="text;strokeColor=none;fillColor=none;align=left;verticalAlign=top;spacingLeft=4;spacingRight=4;overflow=hidden;rotatable=0;points=[[0,0.5],[1,0.5]];portConstraint=eastwest;whiteSpace=wrap;html=1;" parent="xTJghPn8SgGBMsq74pdZ-5" vertex="1">
          <mxGeometry y="26" width="207.6595744680851" height="51.75" as="geometry" />
        </mxCell>
        <mxCell id="xTJghPn8SgGBMsq74pdZ-7" value="Location" style="swimlane;fontStyle=0;childLayout=stackLayout;horizontal=1;startSize=26;fillColor=none;horizontalStack=0;resizeParent=1;resizeParentMax=0;resizeLast=0;collapsible=1;marginBottom=0;whiteSpace=wrap;html=1;" parent="FIS8jfVRvhXGR2WtkmsS-3" vertex="1">
          <mxGeometry x="129.7872340425532" y="201.24999999999997" width="207.6595744680851" height="116.08333333333331" as="geometry" />
        </mxCell>
        <mxCell id="xTJghPn8SgGBMsq74pdZ-8" value="-name: String&lt;div&gt;-city: String&lt;/div&gt;&lt;div&gt;-capacity: Int&lt;/div&gt;&lt;div&gt;-address: String&lt;/div&gt;&lt;div&gt;-venue&lt;/div&gt;" style="text;strokeColor=none;fillColor=none;align=left;verticalAlign=top;spacingLeft=4;spacingRight=4;overflow=hidden;rotatable=0;points=[[0,0.5],[1,0.5]];portConstraint=eastwest;whiteSpace=wrap;html=1;" parent="xTJghPn8SgGBMsq74pdZ-7" vertex="1">
          <mxGeometry y="26" width="207.6595744680851" height="90.08333333333331" as="geometry" />
        </mxCell>
        <mxCell id="xTJghPn8SgGBMsq74pdZ-9" value="Schedule" style="swimlane;fontStyle=0;childLayout=stackLayout;horizontal=1;startSize=26;fillColor=none;horizontalStack=0;resizeParent=1;resizeParentMax=0;resizeLast=0;collapsible=1;marginBottom=0;whiteSpace=wrap;html=1;" parent="FIS8jfVRvhXGR2WtkmsS-3" vertex="1">
          <mxGeometry x="129.7872340425532" y="431.25" width="207.6595744680851" height="77.75" as="geometry" />
        </mxCell>
        <mxCell id="xTJghPn8SgGBMsq74pdZ-10" value="-startDate: String&lt;div&gt;-endDate: String&lt;/div&gt;" style="text;strokeColor=none;fillColor=none;align=left;verticalAlign=top;spacingLeft=4;spacingRight=4;overflow=hidden;rotatable=0;points=[[0,0.5],[1,0.5]];portConstraint=eastwest;whiteSpace=wrap;html=1;" parent="xTJghPn8SgGBMsq74pdZ-9" vertex="1">
          <mxGeometry y="26" width="207.6595744680851" height="51.75" as="geometry" />
        </mxCell>
        <mxCell id="xTJghPn8SgGBMsq74pdZ-12" value="Schedule_day" style="swimlane;fontStyle=0;childLayout=stackLayout;horizontal=1;startSize=26;fillColor=none;horizontalStack=0;resizeParent=1;resizeParentMax=0;resizeLast=0;collapsible=1;marginBottom=0;whiteSpace=wrap;html=1;" parent="FIS8jfVRvhXGR2WtkmsS-3" vertex="1">
          <mxGeometry x="129.7872340425532" y="574.9999999999999" width="207.6595744680851" height="77.75" as="geometry" />
        </mxCell>
        <mxCell id="xTJghPn8SgGBMsq74pdZ-13" value="-daysOfWeek: String" style="text;strokeColor=none;fillColor=none;align=left;verticalAlign=top;spacingLeft=4;spacingRight=4;overflow=hidden;rotatable=0;points=[[0,0.5],[1,0.5]];portConstraint=eastwest;whiteSpace=wrap;html=1;" parent="xTJghPn8SgGBMsq74pdZ-12" vertex="1">
          <mxGeometry y="26" width="207.6595744680851" height="51.75" as="geometry" />
        </mxCell>
        <mxCell id="xTJghPn8SgGBMsq74pdZ-14" value="Timeslots" style="swimlane;fontStyle=0;childLayout=stackLayout;horizontal=1;startSize=26;fillColor=none;horizontalStack=0;resizeParent=1;resizeParentMax=0;resizeLast=0;collapsible=1;marginBottom=0;whiteSpace=wrap;html=1;" parent="FIS8jfVRvhXGR2WtkmsS-3" vertex="1">
          <mxGeometry x="532.127659574468" y="565.4166666666666" width="207.6595744680851" height="77.75" as="geometry" />
        </mxCell>
        <mxCell id="xTJghPn8SgGBMsq74pdZ-15" value="-startTime: String&lt;div&gt;-endTime :String&lt;/div&gt;" style="text;strokeColor=none;fillColor=none;align=left;verticalAlign=top;spacingLeft=4;spacingRight=4;overflow=hidden;rotatable=0;points=[[0,0.5],[1,0.5]];portConstraint=eastwest;whiteSpace=wrap;html=1;" parent="xTJghPn8SgGBMsq74pdZ-14" vertex="1">
          <mxGeometry y="26" width="207.6595744680851" height="51.75" as="geometry" />
        </mxCell>
        <mxCell id="xTJghPn8SgGBMsq74pdZ-19" value="" style="endArrow=none;html=1;rounded=0;entryX=0.519;entryY=1.011;entryDx=0;entryDy=0;entryPerimeter=0;exitX=0.5;exitY=0;exitDx=0;exitDy=0;" parent="FIS8jfVRvhXGR2WtkmsS-3" source="xTJghPn8SgGBMsq74pdZ-9" target="xTJghPn8SgGBMsq74pdZ-8" edge="1">
          <mxGeometry width="50" height="50" relative="1" as="geometry">
            <mxPoint x="207.6595744680851" y="412.08333333333326" as="sourcePoint" />
            <mxPoint x="272.5531914893616" y="364.1666666666667" as="targetPoint" />
          </mxGeometry>
        </mxCell>
        <mxCell id="xTJghPn8SgGBMsq74pdZ-23" value="" style="endArrow=none;html=1;rounded=0;entryX=0;entryY=0.5;entryDx=0;entryDy=0;exitX=1;exitY=0.5;exitDx=0;exitDy=0;" parent="FIS8jfVRvhXGR2WtkmsS-3" source="xTJghPn8SgGBMsq74pdZ-8" target="xTJghPn8SgGBMsq74pdZ-6" edge="1">
          <mxGeometry width="50" height="50" relative="1" as="geometry">
            <mxPoint x="441.27659574468066" y="287.49999999999994" as="sourcePoint" />
            <mxPoint x="519.1489361702128" y="258.74999999999994" as="targetPoint" />
            <Array as="points">
              <mxPoint x="441.27659574468066" y="268.3333333333333" />
            </Array>
          </mxGeometry>
        </mxCell>
        <mxCell id="xTJghPn8SgGBMsq74pdZ-24" value="Offers" style="rounded=0;whiteSpace=wrap;html=1;" parent="FIS8jfVRvhXGR2WtkmsS-3" vertex="1">
          <mxGeometry x="791.7021276595743" y="277.91666666666663" width="155.74468085106378" height="57.5" as="geometry" />
        </mxCell>
        <mxCell id="xTJghPn8SgGBMsq74pdZ-26" value="" style="endArrow=none;dashed=1;html=1;dashPattern=1 3;strokeWidth=2;rounded=0;entryX=0.075;entryY=-0.05;entryDx=0;entryDy=0;entryPerimeter=0;" parent="FIS8jfVRvhXGR2WtkmsS-3" target="xTJghPn8SgGBMsq74pdZ-24" edge="1">
          <mxGeometry width="50" height="50" relative="1" as="geometry">
            <mxPoint x="635.9574468085106" y="191.66666666666663" as="sourcePoint" />
            <mxPoint x="752.7659574468083" y="354.5833333333333" as="targetPoint" />
            <Array as="points">
              <mxPoint x="804.6808510638296" y="191.66666666666663" />
            </Array>
          </mxGeometry>
        </mxCell>
        <mxCell id="xTJghPn8SgGBMsq74pdZ-30" value="" style="endArrow=none;html=1;rounded=0;entryX=0.506;entryY=1.021;entryDx=0;entryDy=0;entryPerimeter=0;exitX=0.5;exitY=0;exitDx=0;exitDy=0;" parent="FIS8jfVRvhXGR2WtkmsS-3" source="xTJghPn8SgGBMsq74pdZ-5" target="xTJghPn8SgGBMsq74pdZ-4" edge="1">
          <mxGeometry width="50" height="50" relative="1" as="geometry">
            <mxPoint x="622.9787234042551" y="230" as="sourcePoint" />
            <mxPoint x="687.8723404255318" y="182.08333333333334" as="targetPoint" />
          </mxGeometry>
        </mxCell>
        <mxCell id="xTJghPn8SgGBMsq74pdZ-31" value="Client" style="swimlane;fontStyle=0;childLayout=stackLayout;horizontal=1;startSize=26;fillColor=none;horizontalStack=0;resizeParent=1;resizeParentMax=0;resizeLast=0;collapsible=1;marginBottom=0;whiteSpace=wrap;html=1;" parent="FIS8jfVRvhXGR2WtkmsS-3" vertex="1">
          <mxGeometry x="973.4042553191488" y="47.91666666666666" width="181.70212765957442" height="77.75" as="geometry" />
        </mxCell>
        <mxCell id="xTJghPn8SgGBMsq74pdZ-32" value="-name: String&lt;div&gt;-phoneNumber: Int&lt;/div&gt;&lt;div&gt;-age: Int&lt;/div&gt;" style="text;strokeColor=none;fillColor=none;align=left;verticalAlign=top;spacingLeft=4;spacingRight=4;overflow=hidden;rotatable=0;points=[[0,0.5],[1,0.5]];portConstraint=eastwest;whiteSpace=wrap;html=1;" parent="xTJghPn8SgGBMsq74pdZ-31" vertex="1">
          <mxGeometry y="26" width="181.70212765957442" height="51.75" as="geometry" />
        </mxCell>
        <mxCell id="xTJghPn8SgGBMsq74pdZ-33" value="" style="endArrow=none;html=1;rounded=0;exitX=1.006;exitY=0.37;exitDx=0;exitDy=0;exitPerimeter=0;entryX=0;entryY=0.5;entryDx=0;entryDy=0;" parent="FIS8jfVRvhXGR2WtkmsS-3" source="xTJghPn8SgGBMsq74pdZ-13" target="xTJghPn8SgGBMsq74pdZ-15" edge="1">
          <mxGeometry width="50" height="50" relative="1" as="geometry">
            <mxPoint x="428.29787234042556" y="632.5" as="sourcePoint" />
            <mxPoint x="493.19148936170205" y="584.5833333333331" as="targetPoint" />
          </mxGeometry>
        </mxCell>
        <mxCell id="xTJghPn8SgGBMsq74pdZ-34" value="" style="endArrow=none;html=1;rounded=0;exitX=0.5;exitY=0;exitDx=0;exitDy=0;entryX=0.494;entryY=1.056;entryDx=0;entryDy=0;entryPerimeter=0;" parent="FIS8jfVRvhXGR2WtkmsS-3" source="xTJghPn8SgGBMsq74pdZ-14" target="xTJghPn8SgGBMsq74pdZ-6" edge="1">
          <mxGeometry width="50" height="50" relative="1" as="geometry">
            <mxPoint x="635.9574468085106" y="555.8333333333333" as="sourcePoint" />
            <mxPoint x="700.851063829787" y="507.9166666666666" as="targetPoint" />
          </mxGeometry>
        </mxCell>
        <mxCell id="xTJghPn8SgGBMsq74pdZ-35" value="" style="endArrow=diamondThin;endFill=1;endSize=24;html=1;rounded=0;exitX=0.5;exitY=0;exitDx=0;exitDy=0;entryX=0.481;entryY=0.981;entryDx=0;entryDy=0;entryPerimeter=0;" parent="FIS8jfVRvhXGR2WtkmsS-3" source="xTJghPn8SgGBMsq74pdZ-12" target="xTJghPn8SgGBMsq74pdZ-10" edge="1">
          <mxGeometry width="160" relative="1" as="geometry">
            <mxPoint x="194.68085106382978" y="574.9999999999999" as="sourcePoint" />
            <mxPoint x="233.61702127659575" y="536.6666666666666" as="targetPoint" />
          </mxGeometry>
        </mxCell>
        <mxCell id="xTJghPn8SgGBMsq74pdZ-42" value="" style="endArrow=none;html=1;rounded=0;exitX=0.75;exitY=0;exitDx=0;exitDy=0;entryX=0;entryY=0.5;entryDx=0;entryDy=0;" parent="FIS8jfVRvhXGR2WtkmsS-3" source="xTJghPn8SgGBMsq74pdZ-24" target="xTJghPn8SgGBMsq74pdZ-32" edge="1">
          <mxGeometry width="50" height="50" relative="1" as="geometry">
            <mxPoint x="973.4042553191488" y="412.08333333333326" as="sourcePoint" />
            <mxPoint x="1038.2978723404256" y="364.1666666666667" as="targetPoint" />
            <Array as="points">
              <mxPoint x="908.5106382978723" y="98.70833333333333" />
            </Array>
          </mxGeometry>
        </mxCell>
        <mxCell id="xTJghPn8SgGBMsq74pdZ-44" value="Booking" style="swimlane;fontStyle=0;childLayout=stackLayout;horizontal=1;startSize=26;fillColor=none;horizontalStack=0;resizeParent=1;resizeParentMax=0;resizeLast=0;collapsible=1;marginBottom=0;whiteSpace=wrap;html=1;" parent="FIS8jfVRvhXGR2WtkmsS-3" vertex="1">
          <mxGeometry x="973.4042553191488" y="153.33333333333331" width="181.70212765957442" height="77.75" as="geometry" />
        </mxCell>
        <mxCell id="xTJghPn8SgGBMsq74pdZ-45" value="-BookingId: Int" style="text;strokeColor=none;fillColor=none;align=left;verticalAlign=top;spacingLeft=4;spacingRight=4;overflow=hidden;rotatable=0;points=[[0,0.5],[1,0.5]];portConstraint=eastwest;whiteSpace=wrap;html=1;" parent="xTJghPn8SgGBMsq74pdZ-44" vertex="1">
          <mxGeometry y="26" width="181.70212765957442" height="51.75" as="geometry" />
        </mxCell>
        <mxCell id="xTJghPn8SgGBMsq74pdZ-50" value="" style="endArrow=none;dashed=1;html=1;dashPattern=1 3;strokeWidth=2;rounded=0;entryX=0;entryY=0.5;entryDx=0;entryDy=0;" parent="FIS8jfVRvhXGR2WtkmsS-3" target="xTJghPn8SgGBMsq74pdZ-45" edge="1">
          <mxGeometry width="50" height="50" relative="1" as="geometry">
            <mxPoint x="908.5106382978723" y="204.12499999999997" as="sourcePoint" />
            <mxPoint x="1103.191489361702" y="182.08333333333334" as="targetPoint" />
          </mxGeometry>
        </mxCell>
        <mxCell id="FIS8jfVRvhXGR2WtkmsS-2" value="Model" style="text;html=1;align=center;verticalAlign=middle;resizable=0;points=[];autosize=1;strokeColor=none;fillColor=none;" vertex="1" parent="FIS8jfVRvhXGR2WtkmsS-3">
          <mxGeometry width="60" height="30" as="geometry" />
        </mxCell>
      </root>
    </mxGraphModel>
  </diagram>
</mxfile>
